<svg width="665" height="93" viewBox="0 0 665 93" fill="none" xmlns="http://www.w3.org/2000/svg">
<path d="M101.303 30.5C101.303 37.75 99.5111 43.875 95.9277 48.875C92.4277 53.875 86.3861 57.5 77.8027 59.75C78.8027 61.0833 79.5111 62.125 79.9277 62.875L100.178 91H66.1777C62.5111 84.1667 56.7194 74.5 48.8027 62H30.4277V91H0.927735C1.5944 74.8333 1.92773 59.7083 1.92773 45.625C1.92773 31.5417 1.5944 16.4167 0.927735 0.249999H30.4277V0.374997H56.0527C72.8861 0.374997 84.6361 3.08333 91.3027 8.5C97.9694 13.9167 101.303 21.25 101.303 30.5ZM30.4277 24.375V38.625H47.3027C54.3861 38.625 59.7194 38.4167 63.3027 38C66.9694 37.5 69.5111 36.75 70.9277 35.75C72.3444 34.75 73.0527 33.2917 73.0527 31.375C73.0527 29.5417 72.3861 28.125 71.0527 27.125C69.7194 26.125 67.2194 25.4167 63.5527 25C59.8861 24.5833 54.4694 24.375 47.3027 24.375H30.4277ZM182.708 91C181.125 86.25 179 80.2917 176.333 73.125H136.458L130.208 91H98.833L133.833 0.249999H179.833L215.083 91H182.708ZM169.208 53.625C166.041 44.875 162.791 36.125 159.458 27.375L156.458 19.25C153.541 26.8333 149.25 38.2917 143.583 53.625H169.208ZM324.187 0.374997C323.603 14.4583 323.312 29.5417 323.312 45.625C323.312 61.7917 323.603 76.9167 324.187 91H279.437L249.187 22.75L251.437 91H219.312C219.978 74.8333 220.312 59.7083 220.312 45.625C220.312 31.625 219.978 16.5417 219.312 0.374997H265.312L295.687 70.5L293.562 0.374997H324.187ZM434.68 0.124993V44.25C434.68 59.8333 430.638 71.75 422.555 80C414.555 88.1667 401.846 92.25 384.43 92.25C374.43 92.25 365.18 90.7917 356.68 87.875C348.263 84.9583 340.763 81.1667 334.18 76.5C335.763 71.3333 337.055 66.375 338.055 61.625C339.055 56.875 339.805 51.6667 340.305 46C348.888 52.9167 356.805 57.7083 364.055 60.375C371.305 63.0417 378.221 64.375 384.805 64.375C391.638 64.375 396.513 62.8333 399.43 59.75C402.346 56.6667 403.846 51.375 403.93 43.875V34.375C403.93 20.875 403.555 9.45833 402.805 0.124993H434.68ZM523.528 91C521.945 86.25 519.82 80.2917 517.153 73.125H477.278L471.028 91H439.653L474.653 0.249999H520.653L555.903 91H523.528ZM510.028 53.625C506.862 44.875 503.612 36.125 500.278 27.375L497.278 19.25C494.362 26.8333 490.07 38.2917 484.403 53.625H510.028ZM665.007 0.374997C664.424 14.4583 664.132 29.5417 664.132 45.625C664.132 61.7917 664.424 76.9167 665.007 91H620.257L590.007 22.75L592.257 91H560.132C560.799 74.8333 561.132 59.7083 561.132 45.625C561.132 31.625 560.799 16.5417 560.132 0.374997H606.132L636.507 70.5L634.382 0.374997H665.007Z" fill="#7B0100"/>
</svg>
