<svg width="1138" height="96" viewBox="0 0 1138 96" fill="none" xmlns="http://www.w3.org/2000/svg">
<path d="M3.53903e-07 83.25C2.83333 79 5.16667 75.0417 7 71.375C8.91667 67.7083 10.75 63.4583 12.5 58.625C18.4167 62.0417 25.2917 64.7083 33.125 66.625C40.9583 68.5417 48.25 69.5 55 69.5C61.9167 69.5 66.7917 68.9167 69.625 67.75C72.4583 66.5 73.875 65.1667 73.875 63.75C73.875 58.6667 66.125 56.125 50.625 56.125C33.625 56.125 21.2917 54.375 13.625 50.875C5.95833 47.2917 2.125 41.5417 2.125 33.625C2.125 22.375 6.79167 14.0833 16.125 8.74999C25.4583 3.41666 37.5833 0.749994 52.5 0.749994C61.1667 0.749994 70.0417 1.87499 79.125 4.12499C88.2917 6.29166 96.5417 9.29166 103.875 13.125C101.458 18.625 98.9167 25.3333 96.25 33.25C95.75 34.9167 95.3333 36.1667 95 37C90.75 33.5833 84.3333 30.75 75.75 28.5C67.1667 26.1667 59.5833 25 53 25C45.0833 25 39.75 25.5417 37 26.625C34.25 27.625 32.875 29.125 32.875 31.125C32.875 33.125 34.75 34.75 38.5 36C42.3333 37.1667 47.8333 37.75 55 37.75C72.6667 37.75 85.5 39.7917 93.5 43.875C101.5 47.875 105.5 54.0417 105.5 62.375C105.5 74.0417 101.25 82.4583 92.75 87.625C84.25 92.7083 71.375 95.25 54.125 95.25C44.875 95.25 35.4583 94.25 25.875 92.25C16.2917 90.1667 7.66667 87.1667 3.53903e-07 83.25ZM220.229 3.25C219.645 17.3333 219.354 32.4583 219.354 48.625C219.354 64.7917 219.645 79.9167 220.229 94H190.854V60H144.854V94H115.479C116.145 77.8333 116.479 62.7083 116.479 48.625C116.479 34.5417 116.145 19.4167 115.479 3.25H144.854V37.25H190.854V3.25H220.229ZM304.225 3.12499H335.225V52.875C335.058 65.125 330.85 75.25 322.6 83.25C314.433 91.25 300.641 95.25 281.225 95.25C261.558 95.25 248.1 91.4583 240.85 83.875C233.6 76.2083 230.058 66.1667 230.225 53.75V3.12499H261.225V51.75C261.225 55.4167 261.475 58.4167 261.975 60.75C262.558 63 264.308 65.125 267.225 67.125C270.225 69.125 275.016 70.125 281.6 70.125C288.766 70.125 294.016 69.125 297.35 67.125C300.683 65.0417 302.641 62.75 303.225 60.25C303.891 57.75 304.225 54.5417 304.225 50.625V3.12499ZM385.215 1.87499C400.882 1.87499 413.257 3.79166 422.34 7.62499C431.423 11.375 437.757 16.625 441.34 23.375C445.007 30.0417 446.84 38.25 446.84 48C446.84 57.25 444.757 65.3333 440.59 72.25C436.423 79.1667 430.173 84.5417 421.84 88.375C413.507 92.125 403.257 94 391.09 94C383.673 94 376.132 94 368.465 94C360.798 94 353.048 93.9583 345.215 93.875C345.882 77.4583 346.215 62.1667 346.215 48C346.215 33.6667 345.882 18.7083 345.215 3.12499C355.132 2.29166 368.465 1.87499 385.215 1.87499ZM394.59 69.125C402.34 69.125 407.507 67.25 410.09 63.5C412.673 59.75 413.965 54.5833 413.965 48C413.965 41.6667 412.59 36.5417 409.84 32.625C407.173 28.7083 402.09 26.75 394.59 26.75C386.507 26.75 380.465 27 376.465 27.5V69.125H394.59ZM561.537 3.25C560.954 17.3333 560.662 32.4583 560.662 48.625C560.662 64.7917 560.954 79.9167 561.537 94H532.162V60H486.162V94H456.787C457.454 77.8333 457.787 62.7083 457.787 48.625C457.787 34.5417 457.454 19.4167 456.787 3.25H486.162V37.25H532.162V3.25H561.537ZM650.408 94C648.825 89.25 646.7 83.2917 644.033 76.125H604.158L597.908 94H566.533L601.533 3.25H647.533L682.783 94H650.408ZM636.908 56.625C633.742 47.875 630.492 39.125 627.158 30.375L624.158 22.25C621.242 29.8333 616.95 41.2917 611.283 56.625H636.908ZM791.887 3.375C791.303 17.4583 791.012 32.5417 791.012 48.625C791.012 64.7917 791.303 79.9167 791.887 94H747.137L716.887 25.75L719.137 94H687.012C687.678 77.8333 688.012 62.7083 688.012 48.625C688.012 34.625 687.678 19.5417 687.012 3.375H733.012L763.387 73.5L761.262 3.375H791.887ZM801.88 83.25C804.713 79 807.047 75.0417 808.88 71.375C810.797 67.7083 812.63 63.4583 814.38 58.625C820.297 62.0417 827.172 64.7083 835.005 66.625C842.838 68.5417 850.13 69.5 856.88 69.5C863.797 69.5 868.672 68.9167 871.505 67.75C874.338 66.5 875.755 65.1667 875.755 63.75C875.755 58.6667 868.005 56.125 852.505 56.125C835.505 56.125 823.172 54.375 815.505 50.875C807.838 47.2917 804.005 41.5417 804.005 33.625C804.005 22.375 808.672 14.0833 818.005 8.74999C827.338 3.41666 839.463 0.749994 854.38 0.749994C863.047 0.749994 871.922 1.87499 881.005 4.12499C890.172 6.29166 898.422 9.29166 905.755 13.125C903.338 18.625 900.797 25.3333 898.13 33.25C897.63 34.9167 897.213 36.1667 896.88 37C892.63 33.5833 886.213 30.75 877.63 28.5C869.047 26.1667 861.463 25 854.88 25C846.963 25 841.63 25.5417 838.88 26.625C836.13 27.625 834.755 29.125 834.755 31.125C834.755 33.125 836.63 34.75 840.38 36C844.213 37.1667 849.713 37.75 856.88 37.75C874.547 37.75 887.38 39.7917 895.38 43.875C903.38 47.875 907.38 54.0417 907.38 62.375C907.38 74.0417 903.13 82.4583 894.63 87.625C886.13 92.7083 873.255 95.25 856.005 95.25C846.755 95.25 837.338 94.25 827.755 92.25C818.172 90.1667 809.547 87.1667 801.88 83.25ZM1022.11 3.25C1021.53 17.3333 1021.23 32.4583 1021.23 48.625C1021.23 64.7917 1021.53 79.9167 1022.11 94H992.733V60H946.733V94H917.358C918.025 77.8333 918.358 62.7083 918.358 48.625C918.358 34.5417 918.025 19.4167 917.358 3.25H946.733V37.25H992.733V3.25H1022.11ZM1106.1 3.12499H1137.1V52.875C1136.94 65.125 1132.73 75.25 1124.48 83.25C1116.31 91.25 1102.52 95.25 1083.1 95.25C1063.44 95.25 1049.98 91.4583 1042.73 83.875C1035.48 76.2083 1031.94 66.1667 1032.1 53.75V3.12499H1063.1V51.75C1063.1 55.4167 1063.35 58.4167 1063.85 60.75C1064.44 63 1066.19 65.125 1069.1 67.125C1072.1 69.125 1076.9 70.125 1083.48 70.125C1090.65 70.125 1095.9 69.125 1099.23 67.125C1102.56 65.0417 1104.52 62.75 1105.1 60.25C1105.77 57.75 1106.1 54.5417 1106.1 50.625V3.12499Z" fill="black" fill-opacity="0.2"/>
</svg>
